<svg width="54" height="24" viewBox="0 0 54 24" fill="none" xmlns="http://www.w3.org/2000/svg">
<path d="M43.3876 24C43.0588 24 42.7916 23.8939 42.5861 23.6817C42.3806 23.4774 42.2779 23.1984 42.2779 22.8448C42.2779 22.5148 42.319 22.1847 42.4012 21.8546C42.4916 21.5324 42.6478 21.1749 42.8697 20.7819C43.0834 20.389 43.367 19.9489 43.7204 19.4617C44.0821 18.9823 44.5342 18.4165 45.0767 17.7643L47.5426 12.9902C46.3096 14.389 45.1918 15.4578 44.189 16.1965C43.1862 16.9352 42.2491 17.3045 41.3778 17.3045C41.0984 17.3045 40.86 17.2417 40.6627 17.1159C40.4655 16.9981 40.3668 16.7977 40.3668 16.5148C40.3668 16.1218 40.4655 15.6778 40.6627 15.1827C40.8271 14.7977 40.9997 14.4401 41.1806 14.11C41.3696 13.7721 41.5628 13.4185 41.7601 13.0491C41.9655 12.6562 42.2039 12.1729 42.4752 11.5992C42.7464 11.0256 43.0464 10.3379 43.3752 9.53636C43.5396 9.22988 43.7533 9.00984 44.0164 8.87624C44.2794 8.73479 44.5342 8.66406 44.7808 8.66406C45.0356 8.66406 45.2493 8.723 45.4219 8.84088C45.6028 8.9509 45.6932 9.10021 45.6932 9.28882C45.6932 9.39098 45.6767 9.47349 45.6439 9.53636L43.3876 14.0275C43.2725 14.2633 43.2149 14.444 43.2149 14.5698C43.2149 14.6876 43.2643 14.7466 43.3629 14.7466C43.4533 14.7466 43.5684 14.7034 43.7081 14.6169C43.8479 14.5305 43.9794 14.4322 44.1027 14.3222L49.1948 9.53636C49.6057 9.22202 49.9222 9.02948 50.1441 8.95876C50.3661 8.88803 50.5839 8.85267 50.7976 8.85267C50.9702 8.85267 51.0935 8.91554 51.1675 9.04127C51.2415 9.15915 51.2784 9.28489 51.2784 9.41848C51.2784 9.52064 51.2579 9.62281 51.2168 9.72497L48.455 15.2299C48.8495 14.947 49.3016 14.6719 49.8112 14.4047C50.3209 14.1297 50.8181 13.8821 51.3031 13.6621C51.7881 13.4421 52.199 13.2692 52.5361 13.1434C52.8731 13.0098 53.0621 12.943 53.1032 12.943C53.3087 12.943 53.4895 13.0177 53.6457 13.167C53.8019 13.3163 53.88 13.5049 53.88 13.7328C53.88 13.9371 53.7978 14.1533 53.6334 14.3812C53.4772 14.6091 53.1977 14.8291 52.795 15.0413C52.2771 15.3163 51.784 15.5717 51.3154 15.8075C50.8551 16.0432 50.4688 16.2436 50.1565 16.4087L49.2811 16.8802C48.8865 17.1002 48.5207 17.332 48.1837 17.5757C47.8549 17.8193 47.522 18.0904 47.185 18.389C46.8234 19.2927 46.4823 20.0904 46.1617 20.7819C45.8493 21.4735 45.6562 21.8861 45.5822 22.0197C44.9164 23.3399 44.1849 24 43.3876 24Z" fill="#E66F1F"/>
<path d="M31.5389 17.3044C31.2594 17.3044 30.9265 17.2297 30.5402 17.0804C30.1539 16.9311 29.8128 16.6836 29.5169 16.3378C29.2292 15.992 29.0853 15.5283 29.0853 14.9468C29.0853 14.4596 29.2004 13.8506 29.4306 13.1197C29.6607 12.3889 30.0224 11.6698 30.5156 10.9625C31.0087 10.2395 31.6375 9.63837 32.402 9.159C33.1746 8.67963 34.0665 8.43994 35.0775 8.43994C35.4391 8.43994 35.7556 8.48316 36.0268 8.56961C36.2981 8.65605 36.5282 8.75035 36.7173 8.85252C36.8242 8.91538 36.9228 8.98218 37.0132 9.05291C37.1118 9.11578 37.2023 9.1865 37.2845 9.26509L37.716 9.0647C37.8393 9.00969 37.9667 8.96253 38.0982 8.92324C38.2379 8.87609 38.3571 8.85252 38.4558 8.85252C38.7681 8.85252 39.0229 8.93503 39.2202 9.10006C39.4175 9.26509 39.5161 9.44584 39.5161 9.6423C39.5161 9.70517 39.512 9.74839 39.5038 9.77196C39.4462 9.992 39.3394 10.2946 39.1832 10.6796C39.0352 11.0647 38.875 11.493 38.7023 11.9645C38.5297 12.4203 38.3818 12.8604 38.2585 13.2847C38.1434 13.7091 38.0859 14.0588 38.0859 14.3339C38.0859 14.5696 38.127 14.7661 38.2092 14.9232C38.2914 15.0726 38.4311 15.1472 38.6284 15.1472C38.8667 15.1472 39.1873 15.0175 39.5901 14.7582C39.9928 14.491 40.4079 14.1767 40.8354 13.8152C41.0655 13.6187 41.3039 13.4105 41.5505 13.1904C41.7971 12.9625 42.0478 12.7228 42.3026 12.4714C42.4341 12.3692 42.5615 12.3181 42.6848 12.3181C42.8492 12.3181 42.9848 12.3967 43.0917 12.5539C43.2067 12.7032 43.2643 12.8722 43.2643 13.0608C43.2643 13.2808 43.1862 13.4655 43.03 13.6148C42.7012 13.9056 42.3642 14.216 42.019 14.546C41.6738 14.8761 41.197 15.2808 40.5888 15.7602C40.0463 16.1845 39.4873 16.55 38.912 16.8564C38.3366 17.1551 37.8187 17.3044 37.3584 17.3044C36.7831 17.3044 36.3639 17.0922 36.1008 16.6678C35.8378 16.2356 35.7063 15.7759 35.7063 15.2887C35.7063 14.935 35.7597 14.6207 35.8666 14.3456C35.5296 14.7779 35.1309 15.2258 34.6706 15.6894C34.2103 16.1452 33.713 16.5303 33.1787 16.8447C32.6444 17.1511 32.0978 17.3044 31.5389 17.3044ZM32.5253 15.2297C32.7883 15.2297 33.1171 15.0686 33.5116 14.7464C33.9144 14.4242 34.3007 14.047 34.6706 13.6148C35.0816 13.1433 35.4063 12.715 35.6446 12.3299C35.883 11.9449 36.0022 11.6855 36.0022 11.5519C36.0022 11.2533 35.8214 11.0175 35.4597 10.8447C35.098 10.6639 34.7733 10.5735 34.4857 10.5735C33.976 10.5735 33.4911 10.7307 33.0308 11.045C32.5787 11.3594 32.2088 11.7641 31.9211 12.2592C31.6334 12.7464 31.4896 13.2533 31.4896 13.7798C31.4896 14.0863 31.5471 14.4046 31.6622 14.7346C31.7855 15.0647 32.0732 15.2297 32.5253 15.2297Z" fill="#E66F1F"/>
<path d="M24.2028 17.3044C23.5288 17.3044 23.0644 17.1433 22.8096 16.8211C22.563 16.4989 22.4397 16.106 22.4397 15.6423C22.4397 15.2573 22.4973 14.8643 22.6123 14.4635C22.7356 14.0549 22.8795 13.6816 23.0439 13.3437C23.3316 12.7307 23.6234 12.1217 23.9193 11.5166C24.2152 10.9115 24.4864 10.3575 24.733 9.85451L28.4689 2.25136C28.6579 1.85844 28.9415 1.60303 29.3196 1.48516C29.6977 1.36728 30.0429 1.37907 30.3553 1.52052C30.6758 1.65412 30.8361 1.90166 30.8361 2.26315C30.8361 2.40461 30.7991 2.55392 30.7252 2.71109C30.6594 2.86826 30.5731 3.03722 30.4662 3.21797C30.1703 3.75235 29.7922 4.45569 29.3319 5.32799C28.8798 6.20028 28.3784 7.1826 27.8277 8.27494C27.2277 9.4773 26.7222 10.4871 26.3112 11.3044C25.9084 12.1138 25.5303 12.88 25.1769 13.603C25.0865 13.7838 24.996 13.996 24.9056 14.2396C24.8234 14.4753 24.7823 14.6875 24.7823 14.8761C24.7823 15.1355 24.9015 15.2651 25.1399 15.2651C25.4029 15.2651 25.7523 15.163 26.1879 14.9586C26.6318 14.7465 27.0921 14.4832 27.5688 14.1688C28.0538 13.8624 28.5223 13.5441 28.9744 13.214C29.4265 12.8761 29.8457 12.55 30.232 12.2356C30.3635 12.1335 30.5197 12.0824 30.7005 12.0824C31.0786 12.0824 31.2677 12.2828 31.2677 12.6836C31.2677 12.8486 31.2101 13.0333 31.095 13.2376C30.98 13.4419 30.7786 13.6423 30.4909 13.8388C29.9648 14.3024 29.4347 14.7425 28.9004 15.159C28.3743 15.5677 27.8442 15.9331 27.3099 16.2553C26.7838 16.5696 26.2578 16.8211 25.7317 17.0097C25.2056 17.2062 24.696 17.3044 24.2028 17.3044Z" fill="#E66F1F"/>
<path d="M16.5955 17.3045C15.938 17.3045 15.3749 17.1512 14.9064 16.8447C14.4461 16.5304 14.0926 16.1217 13.8461 15.6188C13.6077 15.108 13.4885 14.5618 13.4885 13.9803C13.4885 13.4695 13.6406 12.8997 13.9447 12.2711C14.257 11.6345 14.7009 11.0255 15.2763 10.4439C15.8517 9.86241 16.538 9.38304 17.3353 9.00583C18.1408 8.62076 19.0162 8.42822 19.9615 8.42822C20.6437 8.42822 21.1533 8.58539 21.4904 8.89974C21.8274 9.21408 21.9959 9.65023 21.9959 10.2082C21.9959 10.5382 21.9054 10.884 21.7246 11.2455C21.5438 11.607 21.2314 11.9724 20.7876 12.3418C20.3437 12.719 19.7478 13.1041 18.9998 13.497C18.26 13.8821 17.3312 14.2711 16.2133 14.664C16.3037 15.1512 16.7147 15.3948 17.4463 15.3948C18.0134 15.3948 18.6258 15.2848 19.2834 15.0648C19.9409 14.8369 20.5739 14.5775 21.1821 14.2868C21.7904 14.0039 22.3123 13.7367 22.748 13.4852C23.1836 13.2337 23.4425 13.0923 23.5247 13.0608C23.5987 13.0137 23.6645 12.9862 23.722 12.9783C23.7878 12.9705 23.8453 12.9665 23.8946 12.9665C24.0919 12.9665 24.2275 13.0412 24.3015 13.1905C24.3837 13.332 24.4248 13.4498 24.4248 13.5441C24.4248 13.6149 24.4166 13.7013 24.4001 13.8035C24.3837 13.8978 24.322 14.0078 24.2152 14.1335C24.1083 14.2357 23.796 14.4597 23.2781 14.8054C22.7603 15.1512 22.2055 15.4852 21.6136 15.8074C20.8903 16.1925 20.0848 16.5382 19.1971 16.8447C18.3093 17.1512 17.4422 17.3045 16.5955 17.3045ZM16.0284 13.3084C16.5627 13.0412 17.1052 12.7308 17.6559 12.3771C18.2148 12.0156 18.6381 11.7524 18.9258 11.5874C19.3121 11.3516 19.5669 11.1434 19.6902 10.9626C19.83 10.7661 19.8998 10.6011 19.8998 10.4675C19.8998 10.3496 19.8587 10.2553 19.7765 10.1846C19.7026 10.1139 19.6163 10.0707 19.5176 10.0549L19.4067 10.0432H19.2957C18.8436 10.0432 18.4244 10.1689 18.0381 10.4204C17.66 10.664 17.3394 10.9705 17.0764 11.3398C16.7969 11.7249 16.5709 12.0864 16.3983 12.4243C16.2339 12.7622 16.1106 13.0569 16.0284 13.3084Z" fill="#E66F1F"/>
<path d="M1.66448 17.4578C1.14664 17.4578 0.805528 17.3202 0.641135 17.0452C0.476741 16.7701 0.394544 16.5069 0.394544 16.2554C0.394544 15.8703 0.489071 15.5088 0.678123 15.1709L4.31533 8.8055C4.62768 8.27112 4.94003 7.75638 5.25237 7.2613C5.57294 6.75835 5.88529 6.31434 6.18942 5.92927C6.48533 5.5442 6.76479 5.23772 7.02782 5.00982C7.29907 4.77407 7.54155 4.65619 7.75527 4.65619C7.895 4.65619 8.04295 4.70334 8.19913 4.79764C8.3553 4.89194 8.43339 5.08841 8.43339 5.38703C8.43339 5.53635 8.38818 5.7446 8.29776 6.01179C8.20735 6.27898 8.08816 6.58546 7.94021 6.93124C7.79225 7.27701 7.61964 7.65815 7.42237 8.07466C7.2251 8.4833 7.0196 8.90373 6.80589 9.33595L6.96618 9.34774H7.12646C7.84157 9.34774 8.51148 9.20629 9.13617 8.92338C9.76909 8.63261 10.328 8.2554 10.813 7.79175C11.2979 7.32809 11.6761 6.82122 11.9473 6.27112C12.2268 5.71316 12.3665 5.16699 12.3665 4.63261C12.3665 4.2554 12.2966 3.89784 12.1569 3.55992C12.0172 3.222 11.7911 2.92731 11.4788 2.67583C11.1747 2.42436 10.7801 2.22397 10.2951 2.07466C9.81018 1.92534 9.23481 1.85069 8.56901 1.85069C7.82102 1.85069 7.17578 1.91749 6.63328 2.05108C6.099 2.18468 5.6387 2.35756 5.25237 2.56974C4.85783 2.78193 4.52493 3.02554 4.25368 3.30059C3.99065 3.57564 3.76461 3.85855 3.57556 4.14931C3.35363 4.48723 3.13992 4.83301 2.93442 5.18664C2.72893 5.54027 2.49467 5.8389 2.23164 6.08251C1.96861 6.32613 1.63572 6.44794 1.23295 6.44794C0.410984 6.44794 0 6.0668 0 5.30452C0 4.79371 0.213712 4.23183 0.641135 3.61886C1.06856 3.00589 1.66448 2.42829 2.42891 1.88605C3.20978 1.33595 4.14272 0.884086 5.22771 0.530452C6.31271 0.176817 7.4758 0 8.71697 0C9.85128 0 10.9034 0.184676 11.8733 0.554027C12.8432 0.915521 13.6241 1.45776 14.2159 2.18075C14.8077 2.90373 15.1037 3.80747 15.1037 4.89194C15.1037 5.69352 14.8817 6.45187 14.4379 7.16699C13.994 7.88212 13.4186 8.51473 12.7117 9.06483C12.0131 9.60707 11.2404 10.0629 10.3938 10.4322C9.54715 10.8016 8.72108 11.053 7.91555 11.1866C7.98953 11.5403 8.10871 11.945 8.2731 12.4008C8.4375 12.8566 8.63888 13.3006 8.87725 13.7328C9.12384 14.1572 9.39509 14.5147 9.691 14.8055C9.99513 15.0884 10.3116 15.2416 10.6404 15.2652L10.8253 15.277H10.9979C11.598 15.277 12.1322 15.1827 12.6008 14.9941C13.0693 14.8055 13.4597 14.5972 13.7721 14.3694C14.1337 14.1179 14.4543 13.8153 14.7338 13.4617C14.9968 13.1866 15.2557 13.0491 15.5105 13.0491C15.6749 13.0491 15.8147 13.1041 15.9297 13.2141C16.0448 13.3242 16.1023 13.4735 16.1023 13.6621C16.1023 13.8428 16.0407 14.055 15.9174 14.2986C15.8023 14.5344 15.6009 14.7819 15.3133 15.0413C14.4666 15.8035 13.6364 16.3615 12.8227 16.7151C12.0172 17.0609 11.2527 17.2338 10.5294 17.2338C9.93759 17.2338 9.39098 17.0727 8.88958 16.7505C8.38818 16.4283 7.93199 15.9921 7.521 15.442C7.11002 14.8919 6.73603 14.2515 6.39902 13.5206C6.06201 12.7819 5.76199 12.0039 5.49896 11.1866C5.30991 11.6031 5.0962 12.1454 4.85783 12.8134C4.62768 13.4735 4.33177 14.2161 3.9701 15.0413C3.6742 15.7249 3.32897 16.2986 2.93442 16.7623C2.5481 17.2259 2.12479 17.4578 1.66448 17.4578Z" fill="#E66F1F"/>
</svg>
