<svg width="599" height="129" viewBox="0 0 599 129" fill="none" xmlns="http://www.w3.org/2000/svg">
<g clip-path="url(#clip0_2865_2923)">
<path d="M31.4373 57.5636H59.3588V97.5157C59.3588 117.703 49.0472 129.302 29.7183 129.302C10.3881 129.302 0.078125 117.705 0.078125 97.5157V31.7884C0.078125 11.5978 10.3881 0 29.7183 0C49.0488 0 59.3588 11.598 59.3588 31.7884V44.2469H40.4578V30.5009C40.4578 21.4822 36.5923 18.0462 30.1479 18.0462C23.7032 18.0462 19.8395 21.4822 19.8395 30.5009V98.8037C19.8395 107.824 23.7051 111.264 30.1479 111.264C36.5906 111.264 40.4578 107.824 40.4578 98.8037V75.6061H31.4373V57.5636Z" fill="#231F20"/>
<path d="M88.1429 86.3456L63.2266 1.71875H83.8465L98.8822 59.2824L113.916 1.71875H133.246L107.903 86.3456V128.442H88.1429V86.3456Z" fill="#231F20"/>
<path d="M183.075 91.5003L196.821 1.72037H224.313V128.015H205.412V37.3763L191.666 128.013H172.765L158.16 38.6622V128.013H140.977V1.71875H168.469L183.075 91.5003Z" fill="#231F20"/>
<path d="M265.555 0C284.886 0 294.768 11.5978 294.768 31.7884V35.6537H275.864V30.4987C275.864 21.4801 272.428 18.0441 265.983 18.0441C259.54 18.0441 256.104 21.4801 256.104 30.4987C256.104 56.7029 294.767 61.4289 294.767 97.5135C294.767 117.701 284.455 129.3 265.125 129.3C245.794 129.3 235.484 117.703 235.484 97.5135V89.7792H254.386V98.8013C254.386 107.82 258.253 111.26 264.697 111.26C271.142 111.26 275.005 107.82 275.005 98.8013C275.005 72.5971 236.345 67.8695 236.345 31.7863C236.344 11.5978 246.223 0 265.555 0Z" fill="#231F20"/>
<path d="M326.125 128.013H306.367V1.71875H326.125V55.8447H348.893V1.71875H369.084V128.013H348.893V73.8872H326.125V128.013Z" fill="#231F20"/>
<path d="M447.692 128.013H427.501L424.065 105.244H399.58L396.144 128.013H378.102L398.291 1.71875H427.5L447.692 128.013ZM402.585 88.0627H421.917L412.466 24.0544L402.585 88.0627Z" fill="#231F20"/>
<path d="M498.383 128.017C497.095 124.577 496.666 122.864 496.666 112.555V92.7938C496.666 81.196 492.797 76.9031 483.778 76.9031H476.906V128.451H457.148V1.72656H487.214C507.834 1.72656 516.857 11.1764 516.857 30.9394V40.8166C516.857 53.7043 512.558 62.295 503.969 66.5934C513.846 70.8879 517.282 80.3429 517.282 93.6596V112.988C517.282 119.004 517.282 123.727 519.432 128.451H498.381L498.384 128.017H498.383ZM476.903 19.7636V58.4243H484.637C491.939 58.4243 496.666 54.9864 496.666 45.1076V32.6494C496.666 23.6275 493.656 19.7617 486.358 19.7617L476.903 19.7644V19.7636Z" fill="#231F20"/>
<path d="M555.515 77.7557L549.5 89.354V128.014H529.742V1.71875H549.5V56.703L575.705 1.71875H595.466L567.97 57.9927L595.466 128.014H574.848L555.515 77.7557Z" fill="#231F20"/>
</g>
<defs>
<clipPath id="clip0_2865_2923">
<rect width="599" height="129" fill="white"/>
</clipPath>
</defs>
</svg>
