<svg width="88" height="48" viewBox="0 0 88 48" fill="none" xmlns="http://www.w3.org/2000/svg">
<mask id="mask0_2171_8534" style="mask-type:luminance" maskUnits="userSpaceOnUse" x="0" y="5" width="87" height="38">
<path d="M86.6056 5.65088H0V42.3482H86.6056V5.65088Z" fill="white"/>
</mask>
<g mask="url(#mask0_2171_8534)">
<path d="M19.0812 31.734C18.8219 34.1154 15.9084 37.9445 10.3762 37.9445C4.41502 37.9445 0 33.8328 0 27.5022C0 21.5401 4.76357 17.394 10.3762 17.394C15.9888 17.394 18.4823 20.5207 18.4823 23.2276C18.4823 24.624 17.7494 25.4464 16.5965 25.9432L7.07834 30.0978C8.19552 32.3593 10.1617 33.6699 12.7356 33.6699C15.0058 33.6699 16.811 32.5564 17.6243 31.2886C18.1427 30.6717 19.1258 30.8773 19.0812 31.7425V31.734ZM5.96118 24.6668C5.96118 25.9432 6.08629 27.1338 6.39016 28.2047L11.9224 25.5321C12.691 25.1637 13.0395 24.4612 13.0395 23.596C13.0395 22.114 11.9224 19.2015 9.60759 19.2015C7.29283 19.2015 5.96118 21.5487 5.96118 24.6668Z" fill="#1D1D1F"/>
<path d="M35.2752 35.0587C33.6381 36.9855 31.3174 37.9445 28.322 37.9445C25.3267 37.9445 22.9339 37.0029 21.3957 35.1198C19.8576 33.2365 19.084 30.8564 19.084 27.9878C19.084 24.9451 20.0735 22.3731 22.0433 20.2719C24.0134 18.1708 26.55 17.1158 29.6623 17.1158C31.4433 17.1158 33.1883 17.6737 34.8884 18.7898V11.0913C34.8884 10.5071 34.6906 10.0625 34.2858 9.77478C33.8809 9.47834 33.4762 9.2255 33.0805 8.99882C32.6756 8.77213 32.4778 8.46698 32.4778 8.07464C32.4778 7.54281 32.8195 7.15047 33.5122 6.90635C34.034 6.71455 34.9334 6.45299 36.2287 6.1304C37.524 5.80781 38.4326 5.65088 38.9453 5.65088C39.5479 5.65088 39.9618 5.74678 40.1776 5.94731C40.3935 6.13912 40.5014 6.54889 40.5014 7.1592V33.4719C40.5014 33.9427 40.6093 34.335 40.8252 34.6402C41.0412 34.9454 41.275 35.1546 41.5359 35.268C41.7967 35.3813 42.0306 35.5208 42.2465 35.6864C42.4623 35.852 42.5703 36.0352 42.5703 36.2269C42.5703 36.6977 42.4354 37.0378 42.1565 37.2296C41.8866 37.4214 41.3289 37.526 40.4925 37.526H37.2991C37.2991 37.526 35.2662 37.526 35.2662 35.0587H35.2752ZM34.8884 31.1702V23.8117C34.8884 22.5563 34.4567 21.571 33.5931 20.8649C32.7296 20.15 31.6502 19.8011 30.3549 19.8011C28.7717 19.8011 27.4945 20.4463 26.514 21.728C25.5336 23.0096 25.0478 24.919 25.0478 27.4561C25.0478 29.9931 25.5336 31.9026 26.514 33.1842C27.4945 34.4658 28.7717 35.111 30.3549 35.111C31.5332 35.111 32.5857 34.7099 33.5032 33.9166C34.4207 33.1232 34.8884 32.2078 34.8884 31.1789V31.1702Z" fill="#1D1D1F"/>
<path d="M61.6514 31.734C61.3922 34.1154 58.4787 37.9445 52.9465 37.9445C46.9852 37.9445 42.5703 33.8328 42.5703 27.5022C42.5703 21.5401 47.3339 17.394 52.9465 17.394C58.5591 17.394 61.0526 20.5207 61.0526 23.2276C61.0526 24.624 60.3197 25.4464 59.1668 25.9432L49.6486 30.0978C50.7658 32.3593 52.7319 33.6699 55.3059 33.6699C57.5761 33.6699 59.3813 32.5564 60.1946 31.2886C60.713 30.6717 61.6961 30.8773 61.6514 31.7425V31.734ZM48.5315 24.6668C48.5315 25.9432 48.6565 27.1338 48.9604 28.2047L54.4926 25.5321C55.2612 25.1637 55.6098 24.4612 55.6098 23.596C55.6098 22.114 54.4926 19.2015 52.1779 19.2015C49.8631 19.2015 48.5315 21.5487 48.5315 24.6668Z" fill="#1D1D1F"/>
<path d="M86.2732 36.0239C86.0572 35.8548 85.8231 35.7393 85.5803 35.6859C85.3374 35.6326 85.1032 35.4369 84.8874 35.108C84.6707 34.7789 84.5628 34.3075 84.5628 33.6762V25.4859C84.5628 22.6136 83.9326 20.4972 82.6636 19.1455C81.3944 17.7938 79.4227 17.1179 76.7491 17.1179C74.0754 17.1179 71.6718 18.1406 69.7184 20.2659C69.7003 20.2837 69.6643 20.2748 69.6643 20.2482C69.5564 19.519 69.4303 18.7986 69.1693 18.105C69.1331 18.025 69.1062 17.9361 69.0702 17.856C68.548 16.6999 67.4228 15.9352 66.1444 15.9263C65.6403 15.9263 65.1452 15.9885 64.641 16.033C64.398 16.0597 64.164 16.1041 63.9208 16.1397C63.2007 16.2553 62.4895 16.3531 61.6523 16.2287C61.8234 16.6555 61.9404 16.9934 62.0933 17.3047C62.5885 18.3451 63.2727 19.2344 64.236 19.9013C65.0641 20.4794 65.9734 20.7728 66.9456 20.7906C66.9816 20.7906 66.9906 20.844 66.9456 20.8528L66.1085 20.9774C65.3162 21.093 64.7401 21.7689 64.7401 22.5513V33.6584C64.7401 34.2809 64.632 34.761 64.416 35.0901C64.2 35.4191 63.9658 35.606 63.7228 35.6681C63.4798 35.7215 63.2457 35.8372 63.0297 36.0061C62.8136 36.175 62.7056 36.4329 62.7056 36.7708C62.7056 37.5356 63.2367 37.9269 64.3079 37.9269H70.7896C71.8519 37.9269 72.392 37.5446 72.392 36.7708C72.392 36.4329 72.2839 36.175 72.068 36.0061C71.8519 35.8372 71.6178 35.7215 71.3748 35.6681C71.1316 35.6147 70.8976 35.4191 70.6815 35.0901C70.4655 34.761 70.3575 34.2899 70.3575 33.6584V24.8724C70.3575 23.6808 70.7715 22.6136 71.5908 21.671C72.41 20.7284 73.4993 20.2659 74.8496 20.2659C75.7679 20.2659 76.5241 20.3993 77.1001 20.6749C77.6763 20.9417 78.0905 21.3686 78.3515 21.9378C78.6125 22.5069 78.7746 23.0672 78.8467 23.6274C78.9187 24.1788 78.9546 24.9168 78.9546 25.8239V33.6762C78.9546 34.2986 78.8467 34.7789 78.6306 35.108C78.4145 35.4369 78.1804 35.6236 77.9374 35.6859C77.6943 35.7393 77.4602 35.8548 77.2442 36.0239C77.0282 36.1928 76.9202 36.4507 76.9202 36.7887C76.9202 37.5534 77.4512 37.9447 78.5226 37.9447H85.004C86.0668 37.9447 86.6065 37.5623 86.6065 36.7887C86.6065 36.4507 86.4985 36.1928 86.2826 36.0239H86.2732Z" fill="#1D1D1F"/>
</g>
</svg>
