<svg width="100" height="64" viewBox="0 0 100 64" fill="none" xmlns="http://www.w3.org/2000/svg">
<g clip-path="url(#clip0_2228_1390)">
<path d="M39.5957 22.4669H34.9121C34.8486 22.4669 34.787 22.3727 34.787 22.2151C34.787 22.0901 34.8378 21.1787 34.8378 19.9847V12.3188C34.8378 10.1518 33.9898 8.70594 31.8537 8.70594C30.464 8.70594 29.1015 8.99765 28.2734 9.43793C28.2136 9.47054 28.1792 9.53214 28.1792 9.60099V19.9829C28.1792 21.1769 28.6503 21.994 29.3732 21.994H29.5943C29.6577 21.994 29.7193 22.0883 29.7193 22.2133C29.7193 22.3709 29.6559 22.4651 29.5943 22.4651H24.0663C23.9721 22.4651 23.9413 22.3709 23.9413 22.2133C23.9413 22.0883 23.9721 21.994 24.0663 21.994H24.2547C25.0085 21.994 25.4796 21.1769 25.4796 19.9829V11.1266C25.4796 9.64991 25.1335 8.76935 23.6895 8.20587C23.6895 8.20587 23.8525 8.17507 24.0736 8.11165C24.5138 7.98663 24.9342 7.87792 25.8329 7.5844C26.5504 7.34886 27.2552 7.0952 27.6791 6.97924C27.8658 6.92851 27.9745 6.93757 28.0433 6.95388C28.1394 6.97743 28.2444 7.05715 28.2444 7.15681V8.76211C28.2444 8.91068 28.4111 8.99583 28.5325 8.91068C30.3589 7.64419 32.5059 6.82343 34.0877 6.82343C36.6623 6.82343 37.7005 8.89618 37.7005 12.0071L37.6896 18.6548C37.6135 21.5447 39.3457 22.1752 39.6047 22.4216C39.612 22.4307 39.6102 22.4688 39.6011 22.4688L39.5957 22.4669Z" fill="#54565A"/>
<path d="M54.9423 21.0701C54.9423 21.0701 54.7847 21.1335 54.5654 21.1951L50.9889 22.4453C50.9653 22.4525 50.9399 22.4561 50.9146 22.4561H50.5776C50.4725 22.4561 50.3855 22.371 50.3855 22.2641V20.9577C50.3855 20.7965 50.1989 20.7077 50.0757 20.8092C48.8563 21.8147 47.135 22.4507 45.5171 22.4507C41.9368 22.4507 39.5488 19.6242 39.5488 15.4461C39.5488 10.1682 42.3753 6.68217 46.6169 6.68217C47.9576 6.68217 49.1752 7.17862 50.0684 7.97402C50.1916 8.08454 50.3855 7.99757 50.3855 7.8327V4.17095C50.3855 2.44244 50.1663 2.03477 48.5954 1.25024C48.5954 1.25024 48.753 1.18683 48.9723 1.12523L52.5579 0.0326799C52.576 0.0272443 52.5942 0.0236206 52.6141 0.0236206H52.9601C53.0652 0.0236206 53.1522 0.108778 53.1522 0.215677V18.182C53.1522 19.9721 53.3733 20.2855 54.9423 21.0719V21.0701ZM50.3384 20.1533C50.3909 20.1189 50.4199 20.0573 50.4199 19.9938V18.9339V9.05026C50.4199 9.01221 50.4091 8.97597 50.3909 8.94517C49.6571 7.77653 48.1642 7.26196 46.4937 7.50113C44.0658 7.84719 42.4732 10.2968 42.4732 14.4441C42.4732 18.2762 44.3267 20.82 47.0898 20.82C48.5266 20.7911 49.7622 20.532 50.3384 20.1551V20.1533Z" fill="#54565A"/>
<path d="M18.1621 2.48943C18.2908 1.7049 18.8416 1.15409 19.6261 1.02545C20.9759 0.804407 22.0341 1.86072 21.813 3.21236C21.6844 3.99689 21.1336 4.54769 20.349 4.67633C18.9992 4.89738 17.9411 3.84107 18.1621 2.48943Z" fill="#54565A"/>
<path d="M22.9283 21.9958H22.7072C21.9843 21.9958 21.5132 21.1787 21.5132 19.9847L21.5766 9.60277V7.15677C21.5766 7.05712 21.4842 6.97377 21.3882 6.95022C21.3193 6.93391 21.1925 6.91217 21.0113 6.98102C20.3065 7.24555 19.7322 7.42492 19.2484 7.57712C17.9475 7.98479 17.8659 8.00653 17.3985 8.12067C17.1992 8.16959 17.0234 8.20764 17.0234 8.20764C18.4675 8.77294 18.8135 9.65169 18.8135 11.1283V19.9865C18.8135 21.1805 18.3425 21.9976 17.5887 21.9976H17.4003C17.3061 21.9976 17.2753 22.0919 17.2753 22.2169C17.2753 22.3745 17.3061 22.4687 17.4003 22.4687H22.9283C22.9917 22.4687 23.0533 22.3745 23.0533 22.2169C23.0533 22.0919 22.9899 21.9976 22.9283 21.9976V21.9958Z" fill="#54565A"/>
<path d="M5.84789 7.73663L4.5506 9.30387V1.67055C4.5506 0.791802 4.83325 0.288107 5.33513 0.257306C5.39855 0.257306 5.46015 0.193891 5.46015 0.132288C5.46015 0.0706854 5.39674 0.00727059 5.33513 0.00727059H0.339861C0.278259 0.00545874 0.214844 0.0688735 0.214844 0.132288C0.214844 0.195703 0.278259 0.257306 0.339861 0.257306C0.843556 0.289919 1.12439 0.822603 1.12439 1.67055V20.7693C1.12439 21.6498 0.850803 21.918 0.347109 21.9488C0.283694 21.9488 0.245645 22.1318 0.245645 22.1934C0.245645 22.255 0.285506 22.4579 0.347109 22.4579H5.34419C5.40761 22.4579 5.4366 22.2514 5.4366 22.1879C5.4366 22.1245 5.39855 21.9433 5.33695 21.9433C4.83325 21.9125 4.55241 21.6154 4.55241 20.7675V10.5613L10.363 20.3308C11.4628 22.2785 10.363 21.9162 9.89194 21.947C9.82852 21.947 9.81403 22.1426 9.81403 22.2043C9.81403 22.2659 9.83033 22.467 9.89194 22.467H16.5831C16.7407 22.467 16.7715 21.9633 16.5523 21.9633C15.6409 21.8691 14.9814 21.8075 14.5738 21.0845C14.5738 21.0845 7.05639 8.02108 6.86796 7.73844H5.84789V7.73663Z" fill="#54565A"/>
<path d="M11.6237 1.20681L5.8457 7.7349L7.09407 8.27121L13.5696 0.920533L13.6584 0.793703C13.6584 0.793703 13.7019 0.62339 14.1585 0.402344L11.9118 0.480253C12.0821 0.52555 12.122 0.715794 11.6237 1.20681Z" fill="#54565A"/>
<path d="M14.4756 0.462022C14.5463 0.462022 14.5717 0.266342 14.5717 0.202927C14.5717 0.139512 14.5481 0 14.4756 0H11.6129C11.5423 0 11.5332 0.154007 11.5332 0.21561C11.5332 0.277213 11.5423 0.462022 11.6129 0.462022C11.9699 0.492823 12.046 0.576168 11.9626 0.806273L13.5715 0.92042C13.7545 0.699374 14.1405 0.48014 14.4738 0.462022H14.4756Z" fill="#54565A"/>
<path d="M36.891 47.0556C36.891 47.2133 36.8276 47.3093 36.7641 47.3093H31.1565C31.0931 47.3093 31.0296 47.2151 31.0296 47.0556C31.0296 46.9288 31.0931 46.8346 31.1565 46.8346H31.3775C32.1059 46.8346 32.5824 46.012 32.5824 44.8071V35.8729C32.5824 33.9089 32.2019 33.5284 30.8086 32.9268C30.8086 32.9268 30.9354 32.8634 31.1565 32.8L34.8001 31.6912H35.3708V44.8071C35.4016 46.0102 35.8782 46.8346 36.6065 46.8346C36.8276 46.8346 36.891 46.9288 36.891 47.0556ZM31.8848 27.6362C31.8848 26.5274 32.6458 25.7664 33.7547 25.7664C34.8635 25.7664 35.6245 26.5274 35.6245 27.6362C35.6245 28.7451 34.8635 29.5061 33.7547 29.5061C32.6458 29.5061 31.8848 28.7451 31.8848 27.6362Z" fill="#54565A"/>
<path d="M7.82583 25.6286C5.89259 25.6286 3.20018 26.0725 2.31237 28.1633C0.875572 31.595 8.09217 32.7962 8.90388 33.0082C9.71559 33.2202 10.3244 33.338 10.9404 33.6061C15.5353 35.6082 16.2346 38.8406 15.682 41.9769C15.5552 43.3702 14.7634 44.6693 13.4009 45.6513C11.9442 46.7294 9.98012 47.4251 7.92005 47.3617C5.57551 47.3617 3.48464 46.7602 2.09132 45.6513C0.855642 44.6693 0.411739 47.2041 0.411739 47.2041C0.411739 47.2675 0.317522 47.3309 0.221494 47.3309C0.125466 47.3309 0.03125 47.2675 0.03125 47.2041V41.4696H1.26693C1.77425 45.0806 4.43586 46.4431 7.95085 46.4431C9.75726 46.4431 12.5765 46.0318 13.4625 43.8775C14.0332 42.4842 14.238 38.9565 7.31851 37.0287C6.57565 36.7841 5.88353 36.5359 5.1606 36.2206C2.30875 34.9777 -0.383664 33.126 0.0928529 30.1582C0.409927 26.3877 4.65509 24.7408 8.26611 24.6773C10.1033 24.6773 12.0366 25.1212 13.6527 26.3877C14.8884 27.3697 15.3323 24.835 15.3323 24.835C15.3323 24.7716 15.4284 24.7081 15.5226 24.7081C15.6168 24.7081 15.7128 24.7716 15.7128 24.835V30.5695H14.4771C13.939 26.9585 11.5945 25.817 7.82402 25.6267L7.82583 25.6286Z" fill="#54565A"/>
<path d="M24.645 46.079C22.4399 45.9087 21.3873 44.5226 20.8419 42.535C20.6317 41.7704 20.4976 40.8953 20.407 39.9241C20.0175 36.0214 21.8801 32.2238 24.8914 32.3705C26.1905 32.3705 27.1725 33.3218 27.2993 34.7459C27.3627 35.5703 27.9335 36.141 28.7252 36.141C29.517 36.141 29.9917 35.6337 29.9917 34.8727C29.8341 32.9087 27.9317 31.6096 25.2392 31.6096C20.5973 31.6096 17.3142 34.8872 17.2109 39.906H17.2146C17.2146 39.9767 17.2109 40.0455 17.2109 40.1162C17.2109 42.2143 18.5028 44.3885 19.8345 45.6876C22.7153 48.621 26.6326 47.4433 29.9917 45.8616L29.5025 44.9575C28.4046 45.5046 26.1017 46.1913 24.645 46.079Z" fill="#54565A"/>
<path d="M67.6276 47.311H62.9386C62.8751 47.311 62.8135 47.2168 62.8135 47.0592C62.8135 46.9342 62.8643 46.0228 62.8643 44.827V37.1556C62.8643 34.9868 62.0163 33.541 59.8783 33.541C58.4868 33.541 57.1225 33.8327 56.2945 34.2748C56.2347 34.3074 56.2003 34.369 56.2003 34.4378V44.8288C56.2003 46.0246 56.6714 46.8418 57.3943 46.8418H57.6153C57.6787 46.8418 57.7404 46.936 57.7404 47.061C57.7404 47.2186 57.6769 47.3128 57.6153 47.3128H52.0819C51.9877 47.3128 51.9569 47.2186 51.9569 47.061C51.9569 46.936 51.9877 46.8418 52.0819 46.8418H52.2704C53.0259 46.8418 53.497 46.0246 53.497 44.8288V35.9634C53.497 34.4849 53.1509 33.6044 51.7051 33.0391C51.7051 33.0391 51.87 33.0083 52.0892 32.9449C52.5295 32.8199 52.9516 32.7111 53.8485 32.4176C54.566 32.1821 55.2726 31.9284 55.6966 31.8125C55.885 31.7617 55.9919 31.7708 56.0608 31.7871C56.1568 31.8107 56.2619 31.8904 56.2619 31.99V33.5971C56.2619 33.7457 56.4286 33.8309 56.55 33.7457C58.3781 32.4792 60.527 31.6566 62.1087 31.6566C64.687 31.6566 65.7234 33.7312 65.7234 36.844L65.7125 43.4971C65.6364 46.3888 67.3703 47.0211 67.6276 47.2676C67.6349 47.2766 67.6331 47.3147 67.624 47.3147L67.6276 47.311Z" fill="#54565A"/>
<path d="M75.0746 46.079C72.8696 45.9087 71.8169 44.5226 71.2716 42.535C71.0614 41.7704 70.9273 40.8953 70.8367 39.9241C70.4472 36.0214 72.3098 32.2238 75.3211 32.3705C76.6202 32.3705 77.6022 33.3218 77.729 34.7459C77.7924 35.5703 78.3632 36.141 79.1549 36.141C79.9467 36.141 80.4214 35.6337 80.4214 34.8727C80.2638 32.9087 78.3613 31.6096 75.6689 31.6096C71.027 31.6096 67.7439 34.8872 67.6406 39.906H67.6443C67.6443 39.9767 67.6406 40.0455 67.6406 40.1162C67.6406 42.2143 68.9325 44.3885 70.2642 45.6876C73.145 48.621 77.0622 47.4433 80.4214 45.8616L79.9322 44.9575C78.8342 45.5046 76.5314 46.1913 75.0746 46.079Z" fill="#54565A"/>
<path d="M93.2574 44.9122C92.7139 45.1839 91.8587 45.5517 91.0633 45.8235C90.7861 45.9413 89.5812 46.1895 89.2714 46.2203C85.8361 46.5754 84.3776 43.0315 84.3776 38.9765C84.3776 38.4384 84.4084 37.9311 84.4718 37.4564H94.2286C94.2286 33.9088 91.9475 31.5316 88.5267 31.5316C84.2815 31.5316 81.4297 34.9216 81.4297 40.0854C81.4297 44.4882 83.9953 47.4669 87.8291 47.4669C87.8672 47.4669 87.9052 47.4632 87.9433 47.4632C89.8729 47.4632 91.9747 46.6407 93.8336 45.7655L93.2574 44.9122ZM88.3365 32.2926C90.3023 32.2546 91.8913 33.916 91.9837 35.4217C92.0091 35.8348 92.2011 36.4653 90.8694 36.5378L84.5334 36.8857C84.9773 34.0664 86.4032 32.3307 88.3346 32.2926H88.3365Z" fill="#54565A"/>
<path d="M49.8903 44.9122C49.3467 45.1839 48.4915 45.5517 47.6961 45.8235C47.4189 45.9413 46.214 46.1895 45.9042 46.2203C42.4689 46.5754 41.0104 43.0315 41.0104 38.9765C41.0104 38.4384 41.0412 37.9311 41.1046 37.4564H50.8614C50.8614 33.9088 48.5803 31.5316 45.1595 31.5316C40.9144 31.5316 38.0625 34.9216 38.0625 40.0854C38.0625 44.4882 40.6281 47.4669 44.462 47.4669C44.5 47.4669 44.5381 47.4632 44.5761 47.4632C46.5057 47.4632 48.6075 46.6407 50.4664 45.7655L49.8903 44.9122ZM44.9693 32.2926C46.9351 32.2546 48.5241 33.916 48.6165 35.4217C48.6419 35.8348 48.834 36.4653 47.5022 36.5378L41.1662 36.8857C41.6101 34.0664 43.036 32.3307 44.9675 32.2926H44.9693Z" fill="#54565A"/>
<path d="M96.9333 33.3309C95.5799 33.3345 94.4819 32.2474 94.4746 30.8994C94.4692 29.5532 95.5654 28.448 96.9098 28.4443C98.2614 28.4407 99.3612 29.5296 99.3648 30.8758C99.3684 32.2293 98.2813 33.3255 96.9315 33.3291L96.9333 33.3309ZM98.8738 30.8903C98.8738 29.8069 98.015 28.939 96.9406 28.9372C95.8317 28.9372 94.9656 29.796 94.9693 30.8976C94.9729 31.9684 95.8426 32.8417 96.9152 32.8526C97.986 32.8616 98.8738 31.972 98.8738 30.8903Z" fill="#54565A"/>
<path d="M97.3988 30.9138C97.8119 31.2001 97.897 31.6802 98.1652 32.1078C97.9278 32.1078 97.7303 32.1169 97.5347 32.1006C97.4821 32.097 97.4223 32.0209 97.3915 31.9647C97.2937 31.7871 97.2158 31.6005 97.1179 31.423C96.9694 31.1548 96.8425 31.1059 96.5073 31.1766V32.0915H95.875V29.593C96.3406 29.593 96.8027 29.564 97.2593 29.6021C97.6108 29.6329 97.763 29.814 97.8083 30.0931C97.8699 30.4645 97.7793 30.6656 97.4676 30.8577C97.4441 30.8722 97.4241 30.8921 97.3988 30.912V30.9138ZM96.5146 30.6837C96.7374 30.6837 96.9784 30.7671 97.1143 30.5515C97.1759 30.4536 97.1741 30.2471 97.1107 30.1547C96.9675 29.9517 96.7302 30.0278 96.5146 30.0351V30.6837Z" fill="#54565A"/>
<path d="M4.53869 61.2099C4.41186 61.5125 4.24517 61.768 4.0368 61.9745C3.82844 62.1829 3.58928 62.3423 3.32112 62.4547C3.05297 62.567 2.77576 62.6214 2.49129 62.6214C2.27387 62.6214 2.07457 62.5942 1.89338 62.5398C1.7122 62.4855 1.54913 62.413 1.40418 62.3224C1.25924 62.2318 1.12878 62.1267 1.01101 62.0053C0.893242 61.8839 0.788155 61.7571 0.697563 61.6248V62.5217H0V55.9084H0.697563V58.7802C0.793591 58.6407 0.90049 58.5085 1.01826 58.3816C1.13603 58.2548 1.2683 58.1443 1.41324 58.0501C1.55819 57.9558 1.71945 57.8816 1.89701 57.8236C2.07457 57.7656 2.27387 57.7366 2.48948 57.7366C2.7667 57.7366 3.04029 57.791 3.31025 57.8997C3.57841 58.0084 3.81938 58.166 4.02956 58.3744C4.24154 58.5827 4.41004 58.8382 4.53687 59.139C4.6637 59.4416 4.72712 59.7858 4.72712 60.1717C4.72712 60.5577 4.6637 60.9019 4.53687 61.2045L4.53869 61.2099ZM3.8828 59.4379C3.79583 59.2151 3.67625 59.0248 3.52405 58.8654C3.37367 58.7059 3.19792 58.5846 2.99861 58.5012C2.79931 58.4179 2.58732 58.3744 2.36447 58.3744C2.14161 58.3744 1.93687 58.4179 1.73394 58.5048C1.53101 58.5918 1.34983 58.7132 1.19039 58.869C1.03094 59.0248 0.904113 59.2151 0.809897 59.4361C0.715681 59.659 0.670385 59.9054 0.670385 60.1754C0.670385 60.4453 0.717493 60.6935 0.809897 60.9182C0.904113 61.1429 1.03094 61.3349 1.19039 61.4908C1.34983 61.6466 1.53101 61.768 1.73394 61.8549C1.93687 61.9419 2.14523 61.9854 2.36447 61.9854C2.5837 61.9854 2.80112 61.9455 3.00224 61.864C3.20516 61.7825 3.3791 61.6665 3.52767 61.5125C3.67624 61.3585 3.79402 61.1701 3.88098 60.9454C3.96795 60.7207 4.01325 60.4671 4.01325 60.1844C4.01325 59.9018 3.96976 59.659 3.88098 59.4361L3.8828 59.4379Z" fill="#53565C"/>
<path d="M8.06847 62.6775C7.86916 63.1612 7.64812 63.5019 7.40352 63.7012C7.15892 63.9005 6.86177 64.0001 6.51027 64.0001C6.31641 64.0001 6.14247 63.9802 5.98484 63.9403C5.82721 63.9005 5.67139 63.8425 5.51376 63.7628L5.7493 63.2101C5.86344 63.2699 5.97759 63.3152 6.08993 63.3424C6.20226 63.3696 6.33271 63.3823 6.4831 63.3823C6.69508 63.3823 6.87264 63.3189 7.01759 63.192C7.16254 63.0652 7.30386 62.8351 7.44338 62.5035L5.31445 57.838H6.08449L7.78763 61.7425L9.29147 57.838H10.0343L8.06847 62.6757V62.6775Z" fill="#53565C"/>
<path d="M18.5605 56.8342H14.6922V58.9994H18.1529V59.6517H14.6922V61.8712H18.6058V62.5235H13.9766V56.182H18.5605V56.8342Z" fill="#53565C"/>
<path d="M19.9922 62.5235V55.9103H20.6897V62.5235H19.9922Z" fill="#53565C"/>
<path d="M22.375 62.5235V55.9103H23.0726V62.5235H22.375Z" fill="#53565C"/>
<path d="M25.301 61.1138C25.397 61.3095 25.5221 61.4762 25.6724 61.6121C25.8228 61.748 25.9931 61.8513 26.1798 61.9201C26.3664 61.989 26.5639 62.0252 26.7686 62.0252C27.0948 62.0252 27.3738 61.9654 27.6057 61.844C27.8376 61.7226 28.0514 61.5632 28.2435 61.3639L28.6783 61.7534C28.4428 62.0198 28.1746 62.2317 27.872 62.393C27.5695 62.5524 27.1962 62.6322 26.7487 62.6322C26.428 62.6322 26.1272 62.5742 25.8428 62.4564C25.5583 62.3386 25.3101 62.172 25.0981 61.9582C24.8861 61.7444 24.7158 61.4853 24.5908 61.1827C24.4658 60.8801 24.4023 60.5485 24.4023 60.1862C24.4023 59.8474 24.4585 59.5303 24.569 59.2313C24.6814 58.9324 24.8372 58.6733 25.0365 58.4522C25.2358 58.2312 25.4731 58.0573 25.7467 57.9304C26.0221 57.8036 26.3211 57.7402 26.649 57.7402C26.9933 57.7402 27.3013 57.8054 27.5731 57.9359C27.8449 58.0663 28.075 58.2421 28.2616 58.4649C28.4482 58.6878 28.5913 58.9505 28.6874 59.2531C28.7834 59.5556 28.8323 59.8782 28.8323 60.2224V60.3221C28.8323 60.3583 28.8287 60.3982 28.8233 60.4398H25.118C25.1416 60.6935 25.2032 60.9182 25.2992 61.1138H25.301ZM28.1184 59.9235C28.1003 59.7115 28.0568 59.5104 27.988 59.3165C27.9191 59.1226 27.8231 58.9541 27.6999 58.8092C27.5767 58.6642 27.4263 58.5483 27.2488 58.4613C27.0712 58.3743 26.8665 58.329 26.6327 58.329C26.428 58.329 26.2396 58.3707 26.0656 58.4522C25.8917 58.5338 25.7377 58.6461 25.6072 58.7874C25.4768 58.9287 25.3681 59.0972 25.2829 59.2911C25.1996 59.485 25.1452 59.6952 25.1216 59.9253H28.1203L28.1184 59.9235Z" fill="#53565C"/>
<path d="M30.7523 62.5235H30.0547V57.8399H30.7523V58.6552C30.9099 58.4015 31.1146 58.1859 31.3683 58.0066C31.6219 57.829 31.9517 57.7384 32.3557 57.7384C32.6402 57.7384 32.892 57.7837 33.1113 57.8743C33.3305 57.9649 33.5189 58.0935 33.673 58.2584C33.827 58.4251 33.9447 58.6226 34.0263 58.8527C34.1078 59.0828 34.1477 59.3365 34.1477 59.6137V62.5217H33.4501V59.7858C33.4501 59.3509 33.3378 59.0067 33.1149 58.753C32.892 58.4994 32.5714 58.3726 32.1546 58.3726C31.9553 58.3726 31.7705 58.407 31.5984 58.4776C31.4263 58.5465 31.2759 58.6461 31.149 58.7766C31.0222 58.907 30.9244 59.0629 30.8555 59.2441C30.7867 59.4252 30.7504 59.6245 30.7504 59.842V62.5235H30.7523Z" fill="#53565C"/>
<path d="M43.7975 60.5975C43.6345 60.987 43.4026 61.324 43.1036 61.6085C42.8046 61.8929 42.4477 62.1158 42.0346 62.2789C41.6215 62.4419 41.1667 62.5235 40.6721 62.5235H38.4707V56.182H40.6721C41.1667 56.182 41.6215 56.2617 42.0346 56.423C42.4477 56.5824 42.8046 56.8053 43.1036 57.0879C43.4026 57.3724 43.6345 57.7076 43.7975 58.0935C43.9606 58.4794 44.0421 58.8961 44.0421 59.3437C44.0421 59.7912 43.9606 60.2079 43.7975 60.5975ZM43.1145 58.3725C42.9913 58.0645 42.8155 57.7981 42.589 57.5717C42.3626 57.3452 42.0872 57.1676 41.761 57.0372C41.4349 56.9067 41.0725 56.8433 40.6739 56.8433H39.1882V61.8621H40.6739C41.0725 61.8621 41.4349 61.7987 41.761 61.6719C42.0872 61.5451 42.3626 61.3693 42.589 61.1428C42.8155 60.9163 42.9913 60.6518 43.1145 60.3492C43.2377 60.0467 43.2993 59.7187 43.2993 59.3618C43.2993 59.0048 43.2377 58.6823 43.1145 58.3743V58.3725Z" fill="#53565C"/>
<path d="M46.0452 61.1138C46.1412 61.3095 46.2662 61.4762 46.4166 61.6121C46.567 61.748 46.7373 61.8513 46.9239 61.9201C47.1105 61.989 47.308 62.0252 47.5128 62.0252C47.8389 62.0252 48.1179 61.9654 48.3498 61.844C48.5818 61.7226 48.7956 61.5632 48.9876 61.3639L49.4225 61.7534C49.1869 62.0198 48.9188 62.2317 48.6162 62.393C48.3136 62.5524 47.9404 62.6322 47.4928 62.6322C47.1721 62.6322 46.8714 62.5742 46.5869 62.4564C46.3024 62.3386 46.0542 62.172 45.8422 61.9582C45.6302 61.7444 45.4599 61.4853 45.3349 61.1827C45.2099 60.8801 45.1465 60.5485 45.1465 60.1862C45.1465 59.8474 45.2027 59.5303 45.3132 59.2313C45.4255 58.9324 45.5813 58.6733 45.7806 58.4522C45.9799 58.2312 46.2173 58.0573 46.4909 57.9304C46.7663 57.8036 47.0652 57.7402 47.3932 57.7402C47.7374 57.7402 48.0454 57.8054 48.3172 57.9359C48.589 58.0663 48.8191 58.2421 49.0057 58.4649C49.1923 58.6878 49.3355 58.9505 49.4315 59.2531C49.5275 59.5556 49.5765 59.8782 49.5765 60.2224V60.3221C49.5765 60.3583 49.5728 60.3982 49.5674 60.4398H45.8622C45.8857 60.6935 45.9473 60.9182 46.0433 61.1138H46.0452ZM48.8626 59.9235C48.8445 59.7115 48.801 59.5104 48.7321 59.3165C48.6633 59.1226 48.5673 58.9541 48.4441 58.8092C48.3208 58.6642 48.1705 58.5483 47.9929 58.4613C47.8153 58.3743 47.6106 58.329 47.3769 58.329C47.1721 58.329 46.9837 58.3707 46.8098 58.4522C46.6358 58.5338 46.4818 58.6461 46.3514 58.7874C46.2209 58.9287 46.1122 59.0972 46.027 59.2911C45.9437 59.485 45.8893 59.6952 45.8658 59.9253H48.8644L48.8626 59.9235Z" fill="#53565C"/>
<path d="M55.317 62.3478C54.8858 62.538 54.4002 62.6322 53.8639 62.6322C53.362 62.6322 52.9145 62.5471 52.5195 62.3786C52.1245 62.2101 51.7857 61.9763 51.5049 61.681C51.224 61.3857 51.0102 61.0378 50.8617 60.6392C50.7131 60.2406 50.6406 59.8148 50.6406 59.3618C50.6406 58.9089 50.7167 58.5103 50.8707 58.1117C51.0247 57.7131 51.2403 57.3634 51.5194 57.0608C51.7966 56.7582 52.1318 56.519 52.5213 56.3415C52.9109 56.1639 53.3439 56.0751 53.8204 56.0751C54.0868 56.0751 54.3295 56.0933 54.5488 56.1295C54.768 56.1657 54.9746 56.2201 55.1648 56.2926C55.3551 56.365 55.5326 56.4538 55.6993 56.5607C55.866 56.6658 56.0273 56.7854 56.1831 56.9176L55.721 57.4612C55.5997 57.3525 55.4728 57.2546 55.3406 57.1677C55.2083 57.0807 55.0652 57.0046 54.9093 56.9412C54.7553 56.8778 54.5868 56.8289 54.402 56.7908C54.2172 56.7546 54.0143 56.7365 53.7896 56.7365C53.4399 56.7365 53.1156 56.8053 52.8203 56.9448C52.5249 57.0843 52.2713 57.271 52.0593 57.5083C51.8473 57.7438 51.6824 58.0211 51.561 58.3381C51.4396 58.6552 51.3799 58.9922 51.3799 59.3491C51.3799 59.7296 51.4396 60.0829 51.5556 60.4073C51.6734 60.7316 51.8419 61.0106 52.0593 61.2462C52.2767 61.4817 52.5394 61.6665 52.8475 61.7988C53.1555 61.931 53.5033 61.9981 53.8893 61.9981C54.2516 61.9981 54.5923 61.9365 54.913 61.8115C55.2337 61.6864 55.5018 61.5379 55.7192 61.3603V59.7767H53.7896V59.1426H56.4077V61.6629C56.1124 61.9274 55.7482 62.1557 55.3152 62.346L55.317 62.3478Z" fill="#53565C"/>
<path d="M58.5121 61.1138C58.6081 61.3095 58.7331 61.4762 58.8835 61.6121C59.0339 61.748 59.2042 61.8513 59.3908 61.9201C59.5775 61.989 59.775 62.0252 59.9797 62.0252C60.3058 62.0252 60.5849 61.9654 60.8168 61.844C61.0487 61.7226 61.2625 61.5632 61.4564 61.3639L61.8912 61.7534C61.6557 62.0198 61.3875 62.2317 61.0849 62.393C60.7823 62.5543 60.4091 62.6322 59.9616 62.6322C59.6409 62.6322 59.3401 62.5742 59.0557 62.4564C58.7712 62.3386 58.523 62.172 58.311 61.9582C58.099 61.7444 57.9287 61.4853 57.8037 61.1827C57.6787 60.8801 57.6152 60.5485 57.6152 60.1862C57.6152 59.8474 57.6714 59.5303 57.7819 59.2313C57.8943 58.9324 58.0483 58.6733 58.2494 58.4522C58.4487 58.2312 58.686 58.0573 58.9596 57.9304C59.235 57.8036 59.534 57.7402 59.8601 57.7402C60.2044 57.7402 60.5124 57.8054 60.7842 57.9359C61.0559 58.0663 61.286 58.2421 61.4727 58.4649C61.6593 58.6878 61.8024 58.9505 61.8985 59.2531C61.9945 59.5556 62.0434 59.8782 62.0434 60.2224V60.3221C62.0434 60.3583 62.0398 60.3982 62.0343 60.4398H58.3291C58.3527 60.6935 58.4143 60.9182 58.5103 61.1138H58.5121ZM61.3295 59.9235C61.3114 59.7115 61.2679 59.5104 61.1991 59.3165C61.1302 59.1226 61.0342 58.9541 60.911 58.8092C60.7878 58.6642 60.6374 58.5483 60.4616 58.4613C60.2841 58.3743 60.0793 58.329 59.8438 58.329C59.6391 58.329 59.4506 58.3707 59.2767 58.4522C59.1028 58.5338 58.9488 58.6461 58.8183 58.7874C58.686 58.9287 58.5773 59.0972 58.494 59.2911C58.4106 59.485 58.3563 59.6952 58.3327 59.9253H61.3313L61.3295 59.9235Z" fill="#53565C"/>
<path d="M63.9651 62.5235H63.2676V57.8399H63.9651V58.6552C64.1228 58.4015 64.3275 58.1859 64.5812 58.0066C64.8348 57.829 65.1646 57.7384 65.5686 57.7384C65.8531 57.7384 66.1049 57.7837 66.3242 57.8743C66.5434 57.9649 66.7318 58.0935 66.8858 58.2584C67.0399 58.4251 67.1576 58.6226 67.2392 58.8527C67.3207 59.0828 67.3624 59.3365 67.3624 59.6137V62.5217H66.6648V59.7858C66.6648 59.3509 66.5525 59.0067 66.3296 58.753C66.1067 58.4994 65.786 58.3726 65.3693 58.3726C65.17 58.3726 64.9852 58.407 64.8113 58.4776C64.6391 58.5465 64.4888 58.6461 64.3619 58.7766C64.2351 58.907 64.1373 59.0629 64.0684 59.2441C63.9996 59.4252 63.9651 59.6245 63.9651 59.842V62.5235Z" fill="#53565C"/>
<path d="M69.4555 61.1138C69.5515 61.3095 69.6765 61.4762 69.8269 61.6121C69.9773 61.748 70.1476 61.8513 70.3342 61.9201C70.5208 61.989 70.7183 62.0252 70.9231 62.0252C71.2492 62.0252 71.5282 61.9654 71.7601 61.844C71.9921 61.7226 72.2059 61.5632 72.3997 61.3639L72.8346 61.7534C72.599 62.0198 72.3309 62.2317 72.0283 62.393C71.7257 62.5543 71.3525 62.6322 70.9049 62.6322C70.5842 62.6322 70.2835 62.5742 69.999 62.4564C69.7146 62.3386 69.4663 62.172 69.2543 61.9582C69.0424 61.7444 68.872 61.4853 68.747 61.1827C68.622 60.8801 68.5586 60.5485 68.5586 60.1862C68.5586 59.8474 68.6148 59.5303 68.7253 59.2313C68.8376 58.9324 68.9916 58.6733 69.1927 58.4522C69.392 58.2312 69.6294 58.0573 69.903 57.9304C70.1784 57.8036 70.4773 57.7402 70.8035 57.7402C71.1477 57.7402 71.4557 57.8054 71.7275 57.9359C71.9993 58.0663 72.2294 58.2421 72.416 58.4649C72.6026 58.6878 72.7458 58.9505 72.8418 59.2531C72.9378 59.5556 72.9868 59.8782 72.9868 60.2224V60.3221C72.9868 60.3583 72.9831 60.3982 72.9777 60.4398H69.2725C69.296 60.6935 69.3576 60.9182 69.4536 61.1138H69.4555ZM72.2729 59.9235C72.2548 59.7115 72.2113 59.5104 72.1424 59.3165C72.0736 59.1226 71.9776 58.9541 71.8544 58.8092C71.7311 58.6642 71.5808 58.5483 71.405 58.4613C71.2274 58.3743 71.0227 58.329 70.7872 58.329C70.5824 58.329 70.394 58.3707 70.2201 58.4522C70.0461 58.5338 69.8921 58.6461 69.7617 58.7874C69.6294 58.9287 69.5207 59.0972 69.4373 59.2911C69.354 59.485 69.2996 59.6952 69.2761 59.9253H72.2747L72.2729 59.9235Z" fill="#53565C"/>
<path d="M74.9065 62.5236H74.209V57.84H74.9065V59.063C74.9917 58.8691 75.0968 58.6915 75.2236 58.5285C75.3505 58.3654 75.4954 58.2259 75.6585 58.1063C75.8215 57.9885 75.9991 57.8998 76.193 57.84C76.3868 57.7802 76.5952 57.753 76.818 57.7584V58.5103H76.7637C76.51 58.5103 76.2691 58.5556 76.0426 58.6462C75.8161 58.7368 75.6186 58.8727 75.4501 59.0539C75.2816 59.2351 75.1475 59.4598 75.0515 59.7297C74.9555 59.9979 74.9065 60.3077 74.9065 60.6574V62.5236Z" fill="#53565C"/>
<path d="M78.2875 61.1138C78.3835 61.3095 78.5085 61.4762 78.6589 61.6121C78.8093 61.748 78.9796 61.8513 79.1662 61.9201C79.3529 61.989 79.5504 62.0252 79.7551 62.0252C80.0812 62.0252 80.3603 61.9654 80.5922 61.844C80.8241 61.7226 81.0379 61.5632 81.2318 61.3639L81.6666 61.7534C81.4311 62.0198 81.1629 62.2317 80.8603 62.393C80.5577 62.5543 80.1845 62.6322 79.737 62.6322C79.4163 62.6322 79.1155 62.5742 78.831 62.4564C78.5466 62.3386 78.2984 62.172 78.0864 61.9582C77.8744 61.7444 77.7041 61.4853 77.5791 61.1827C77.454 60.8801 77.3906 60.5485 77.3906 60.1862C77.3906 59.8474 77.4468 59.5303 77.5573 59.2313C77.6697 58.9324 77.8237 58.6733 78.0248 58.4522C78.2241 58.2312 78.4614 58.0573 78.735 57.9304C79.0104 57.8036 79.3094 57.7402 79.6355 57.7402C79.9798 57.7402 80.2878 57.8054 80.5596 57.9359C80.8313 58.0663 81.0614 58.2421 81.2481 58.4649C81.4347 58.6878 81.5778 58.9505 81.6738 59.2531C81.7699 59.5556 81.8188 59.8782 81.8188 60.2224V60.3221C81.8188 60.3583 81.8152 60.3982 81.8097 60.4398H78.1045C78.128 60.6935 78.1897 60.9182 78.2857 61.1138H78.2875ZM81.1049 59.9235C81.0868 59.7115 81.0433 59.5104 80.9745 59.3165C80.9056 59.1226 80.8096 58.9541 80.6864 58.8092C80.5632 58.6642 80.4128 58.5483 80.237 58.4613C80.0595 58.3743 79.8547 58.329 79.6192 58.329C79.4145 58.329 79.226 58.3707 79.0521 58.4522C78.8782 58.5338 78.7241 58.6461 78.5937 58.7874C78.4614 58.9287 78.3527 59.0972 78.2694 59.2911C78.186 59.485 78.1317 59.6952 78.1081 59.9253H81.1067L81.1049 59.9235Z" fill="#53565C"/>
<path d="M86.1296 61.8024C86.0426 61.9745 85.9248 62.1213 85.7763 62.2408C85.6277 62.3622 85.4537 62.4528 85.2508 62.5163C85.0479 62.5797 84.8305 62.6123 84.5949 62.6123C84.2561 62.6123 83.9155 62.5507 83.5712 62.4257C83.227 62.3025 82.9226 62.1339 82.6562 61.9238L83.0096 61.4255C83.2632 61.6194 83.5277 61.7661 83.8031 61.8694C84.0786 61.9727 84.3539 62.0234 84.633 62.0234C84.912 62.0234 85.1494 61.9564 85.3305 61.8241C85.5117 61.6919 85.6023 61.5107 85.6023 61.2806V61.2624C85.6023 61.1483 85.5697 61.0487 85.5063 60.9635C85.4429 60.8783 85.3559 60.8041 85.249 60.7406C85.1403 60.6772 85.0153 60.6211 84.8721 60.5739C84.7308 60.525 84.5841 60.4797 84.4337 60.4381C84.2525 60.3837 84.0695 60.3257 83.8847 60.2623C83.6999 60.1989 83.535 60.1192 83.3864 60.0213C83.2379 59.9253 83.1183 59.8039 83.0241 59.659C82.9298 59.514 82.8845 59.3328 82.8845 59.1154V59.0973C82.8845 58.898 82.9244 58.715 83.0023 58.5501C83.0802 58.3834 83.1907 58.2421 83.3339 58.1243C83.4752 58.0066 83.6455 57.916 83.8412 57.8525C84.0369 57.7891 84.2507 57.7583 84.4808 57.7583C84.7707 57.7583 85.0642 57.8054 85.3595 57.8978C85.6549 57.9921 85.9248 58.1171 86.1658 58.2747L85.8487 58.8001C85.6313 58.6606 85.403 58.5501 85.1639 58.4686C84.9247 58.387 84.691 58.3472 84.4609 58.3472C84.1836 58.3472 83.9626 58.4124 83.7995 58.5429C83.6365 58.6733 83.5549 58.8346 83.5549 59.0266V59.0447C83.5549 59.1535 83.5875 59.2477 83.6546 59.331C83.7216 59.4125 83.8104 59.4832 83.9209 59.543C84.0333 59.6028 84.1619 59.6572 84.305 59.7061C84.4482 59.755 84.6004 59.8021 84.758 59.851C84.9392 59.9054 85.1186 59.9652 85.2961 60.0322C85.4737 60.0992 85.6367 60.1826 85.7817 60.2859C85.9266 60.3891 86.0426 60.5123 86.1296 60.6573C86.2165 60.8022 86.26 60.9798 86.26 61.1918V61.2099C86.26 61.4328 86.2165 61.6321 86.1296 61.8042V61.8024Z" fill="#53565C"/>
</g>
<defs>
<clipPath id="clip0_2228_1390">
<rect width="99.3691" height="64" fill="white"/>
</clipPath>
</defs>
</svg>
