<svg width="103" height="36" viewBox="0 0 103 36" fill="none" xmlns="http://www.w3.org/2000/svg">
<path d="M43.7986 10.8606L46.0541 11.6632C46.147 11.6903 46.245 11.6452 46.2837 11.5574L47.2889 9.28645C47.3444 9.16 47.2515 9.01807 47.1134 9.01807L44.5057 9.02581C44.4308 9.02581 44.3625 9.07097 44.3315 9.13936L43.6786 10.6C43.6321 10.7058 43.6876 10.8284 43.7986 10.8606Z" fill="#C84C2D"/>
<path d="M100.156 6.64777C98.1289 7.04777 89.7727 8.69164 86.2411 9.34584C86.685 8.38842 87.4424 6.87487 87.7985 6.16906C87.8888 5.991 87.7585 5.78068 87.5585 5.78068H85.0837C84.8501 5.78068 84.6347 5.90713 84.5198 6.111C84.2114 6.65939 83.5314 7.89552 82.5314 9.86326C82.2114 9.91745 79.2411 10.5239 77.9637 10.742C77.7869 10.7716 77.7224 10.9587 77.823 11.12L78.6734 12.5149C78.7508 12.6413 78.8914 12.6697 79.0243 12.6478L81.3288 12.3316C79.5043 16.0904 77.9327 19.3226 77.5714 20.0013C77.5508 20.0387 77.5327 20.0774 77.5134 20.1149C77.3676 17.9174 75.7237 15.7794 75.7237 14.551C75.7237 13.8207 76.174 13.5497 76.6579 13.3923C76.7727 13.3549 76.7985 13.2233 76.7443 13.1265L75.9714 11.7949C75.9134 11.6839 75.7869 11.6336 75.5766 11.6336C72.7172 11.6336 68.9069 22.7123 63.4101 22.7123C61.0811 22.7123 60.5598 20.7807 60.8037 19.8413C60.8037 19.8413 68.1301 20.6 68.1301 16.0839C68.1301 14.3265 66.6308 13.0129 64.3495 13.0129C61.9353 13.0129 59.2759 14.6 57.8114 19.5445C57.2553 21.4233 55.9843 23.2155 55.0101 22.711C53.4243 21.8891 57.0114 15.502 56.9714 14.9768C56.9405 14.5716 54.3972 13.0104 53.9314 13.0452C53.5301 13.0749 51.4876 15.4633 49.2527 18.2684C49.4927 17.622 50.4837 15.3329 50.8398 14.5136C50.9108 14.3497 50.8308 14.16 50.663 14.0955L48.6295 13.3755C48.4927 13.3239 48.3405 13.3897 48.285 13.5252C47.8579 14.5794 46.1521 18.7704 45.2669 20.4258C44.3056 22.222 43.543 22.9755 42.8824 22.711C41.494 22.1562 44.4205 15.7058 45.1018 14.2491C45.1753 14.0916 45.0979 13.9071 44.9353 13.8478L42.9972 13.142C42.8334 13.0826 42.6514 13.1575 42.5779 13.3149C42.1095 14.3252 40.4785 17.8362 39.494 19.8491C38.6218 21.6323 37.1521 23.1742 36.2282 22.702C34.903 22.0233 38.6605 15.7239 38.6605 14.9536C38.6605 14.4904 36.103 12.9936 35.6579 13.0555C35.2914 13.1071 31.7482 16.2323 30.1598 18.3613C32.0695 13.9871 35.294 7.29423 36.0785 5.67487C36.1598 5.50713 36.0385 5.311 35.8514 5.30971L33.1676 5.29164C32.965 5.29035 32.7805 5.40648 32.6953 5.591C32.0114 7.06713 28.9663 13.6491 26.8979 18.2091C27.2553 12.5497 16.1856 10.4633 7.32498 8.49552C6.7753 8.37293 8.82821 5.54713 19.165 5.54713C24.9005 5.54713 28.3495 6.72906 29.1327 7.11745C29.2618 7.18068 29.4166 7.13164 29.4837 7.00519C29.8501 6.31229 30.9237 4.27745 31.2863 3.59874C31.3547 3.471 31.3069 3.31229 31.1779 3.2439C30.334 2.80132 26.5366 1.38971 19.7521 1.38971C10.4992 1.38971 5.88756 3.67487 4.21659 4.6839C3.06692 5.3781 2.87724 5.69293 2.86305 7.711C2.84627 10.1471 3.19079 10.9665 4.02176 11.1781C6.82692 11.8942 24.1663 15.0581 24.1663 19.4581C24.1663 21.6826 19.214 24.7575 11.4618 24.7575C6.01789 24.7575 4.43724 23.8052 4.43724 23.3807C4.43724 22.3768 8.85401 20.9097 10.614 20.3536C10.845 20.2813 10.8901 20.0129 10.7469 19.7613L9.26305 17.422C9.09272 17.2633 8.85014 17.2091 8.62821 17.2826C7.1495 17.7716 1.62305 19.7175 1.62305 21.5265C1.62305 26.9033 3.55466 28.582 11.2308 28.582C17.9495 28.582 23.9069 25.6787 25.5366 23.6749L27.7495 24.4594C27.8876 24.5368 28.0605 24.5007 28.156 24.3755C29.1611 23.0542 32.0566 18.6607 35.3972 15.8104C35.3972 15.8104 32.7121 20.3071 32.7121 22.4813C32.7121 24.1394 33.5172 24.9355 35.1624 24.9355C37.1727 24.9355 39.0308 22.9316 39.0308 22.9316C39.0463 23.52 39.7069 24.9355 41.5701 24.9355C43.014 24.9355 44.116 23.7239 44.116 23.7239L46.5701 24.5897C46.7172 24.6839 46.9108 24.6426 47.005 24.4955C47.7263 23.3691 50.8089 18.6039 53.8127 15.8013C53.8385 15.7781 51.4759 20.3407 51.4759 22.5407C51.4759 24.0994 52.9637 24.9342 54.334 24.9342C56.063 24.9342 57.2643 23.831 58.183 22.28C58.9611 23.8839 60.1147 24.9174 63.0824 24.9174C69.0269 24.9174 72.2643 17.6 73.4282 16.1497C73.4282 16.1497 74.7443 18.5536 74.7443 20.1845C74.7443 21.6465 74.0398 22.5484 72.7611 22.5484C72.143 22.5484 71.5753 22.3523 71.1276 21.9652C71.0114 21.8645 70.8411 21.8723 70.7379 21.9845C70.3766 22.3807 69.9805 22.8065 69.5534 23.2142C69.4424 23.32 69.4334 23.4852 69.5418 23.5949C70.4295 24.4955 71.5882 24.9226 72.9314 24.9226C74.7056 24.9226 76.2153 24.2413 76.983 22.8142C77.1818 24.1123 78.1392 25.0258 79.6889 25.0258C81.0837 25.0258 82.2953 24.2813 83.0721 23.1781C83.4927 24.3807 84.5676 24.9278 85.6889 24.92C87.7443 24.9045 89.4218 22.8852 89.4218 22.8852C87.934 26.222 85.3624 31.1445 84.7366 32.3691C84.5495 32.7342 84.565 32.9329 84.876 33.0426C85.3469 33.2078 87.2372 33.8787 87.2372 33.8787C87.4747 33.9626 87.6114 33.9678 87.7005 33.7923C88.6179 31.9871 92.0605 25.1549 97.574 12.9613C97.6553 12.7833 97.5082 12.5833 97.3147 12.6091L93.9559 13.0478C93.7224 13.0787 93.5237 13.2323 93.4372 13.4516C92.7495 15.1987 89.5972 22.8078 86.8527 22.8078C85.0437 22.8078 88.5392 15.8052 89.485 13.9742C89.5792 13.791 89.4282 13.5794 89.2243 13.6065L86.685 13.951C86.4669 13.9807 86.2785 14.1162 86.1818 14.3149C85.7263 15.2529 84.3456 18.0865 83.2682 20.1639C81.9366 22.7316 80.8592 22.6749 80.5572 22.5175C79.463 21.9471 82.5211 16.5149 84.9069 11.9278L98.6979 10.1691C98.8347 10.151 98.9534 10.0658 99.0114 9.94068L100.408 6.97164C100.489 6.80003 100.339 6.60906 100.153 6.64648L100.156 6.64777ZM63.9456 15.502C64.783 15.502 65.4824 15.8336 65.4824 16.6207C65.4824 18.2491 62.6166 18.8826 61.0076 18.6091C61.0076 18.6091 61.7818 15.502 63.9469 15.502H63.9456Z" fill="#C84C2D"/>
</svg>
